<svg width="32" height="32" viewBox="0 0 32 32" fill="none" xmlns="http://www.w3.org/2000/svg">
<path d="M23 0H9C7.35 0 6 1.35 6 3V29C6 30.65 7.35 32 9 32H23C24.65 32 26 30.65 26 29V3C26 1.35 24.65 0 23 0ZM12 1.5H20V2.5H12V1.5ZM16 30C15.4696 30 14.9609 29.7893 14.5858 29.4142C14.2107 29.0391 14 28.5304 14 28C14 27.4696 14.2107 26.9609 14.5858 26.5858C14.9609 26.2107 15.4696 26 16 26C16.5304 26 17.0391 26.2107 17.4142 26.5858C17.7893 26.9609 18 27.4696 18 28C18 28.5304 17.7893 29.0391 17.4142 29.4142C17.0391 29.7893 16.5304 30 16 30ZM24 24H8V4H24V24Z" fill="#FF5722"/>
</svg>
