<svg width="16" height="16" viewBox="0 0 16 16" fill="none" xmlns="http://www.w3.org/2000/svg">
<path d="M11.9724 6.95197V12.6623C11.9724 12.8253 11.9416 12.9868 11.8818 13.1374C11.8221 13.288 11.7344 13.4248 11.624 13.5401C11.5135 13.6554 11.3823 13.7468 11.238 13.8092C11.0937 13.8716 10.939 13.9037 10.7827 13.9037H3.64482C3.3293 13.9037 3.02671 13.7729 2.8036 13.5401C2.5805 13.3073 2.45516 12.9915 2.45516 12.6623V5.21404C2.45516 4.8848 2.5805 4.56905 2.8036 4.33625C3.02671 4.10344 3.3293 3.97266 3.64482 3.97266H8.6259" stroke="#CACACA" stroke-width="1.5" stroke-linecap="round" stroke-linejoin="round"/>
<path d="M14.231 1.65269C14.1875 1.60286 14.1348 1.56274 14.0761 1.53476C14.0173 1.50678 13.9538 1.49152 13.8892 1.48989C13.8247 1.48827 13.7605 1.50032 13.7005 1.52531C13.6406 1.5503 13.5861 1.58772 13.5404 1.63531L13.1725 2.01734C13.1279 2.0639 13.1028 2.12702 13.1028 2.19284C13.1028 2.25866 13.1279 2.32179 13.1725 2.36834L13.5097 2.71965C13.5318 2.74283 13.5581 2.76122 13.5871 2.77377C13.616 2.78632 13.647 2.79278 13.6784 2.79278C13.7097 2.79278 13.7407 2.78632 13.7697 2.77377C13.7986 2.76122 13.8249 2.74283 13.847 2.71965L14.2057 2.34724C14.3871 2.15824 14.4041 1.85038 14.231 1.65269ZM12.4286 2.7932L7.05972 8.38562C7.02717 8.41945 7.00351 8.46145 6.99102 8.50759L6.74268 9.27942C6.73673 9.30036 6.73631 9.32259 6.74146 9.34376C6.74661 9.36493 6.75714 9.38426 6.77194 9.39971C6.78675 9.41515 6.80527 9.42614 6.82556 9.43152C6.84585 9.43689 6.86715 9.43645 6.88722 9.43024L7.6263 9.17111C7.67051 9.15807 7.71076 9.13338 7.74318 9.09942L13.1026 3.49645C13.1522 3.44415 13.18 3.37356 13.18 3.3C13.18 3.22644 13.1522 3.15584 13.1026 3.10355L12.8066 2.7932C12.7565 2.74099 12.6885 2.71167 12.6176 2.71167C12.5468 2.71167 12.4788 2.74099 12.4286 2.7932Z" fill="#CACACA"/>
</svg>
