<svg width="16" height="16" viewBox="0 0 16 16" fill="none" xmlns="http://www.w3.org/2000/svg">
<g clip-path="url(#clip0_124_106)">
<path d="M7.68276 9.93091C8.73401 9.93091 9.58621 9.04165 9.58621 7.9447C9.58621 6.84775 8.73401 5.9585 7.68276 5.9585C6.63151 5.9585 5.77931 6.84775 5.77931 7.9447C5.77931 9.04165 6.63151 9.93091 7.68276 9.93091Z" fill="#CACACA"/>
<path d="M11.8115 4.38163C10.5112 3.45122 9.11957 2.97949 7.67562 2.97949C6.37622 2.97949 5.10954 3.38294 3.91066 4.1737C2.70167 4.97284 1.51648 6.42432 0.54483 7.94501C1.3306 9.31053 2.40545 10.7145 3.52492 11.5196C4.80915 12.4425 6.20551 12.9105 7.67562 12.9105C9.13295 12.9105 10.5263 12.4428 11.8186 11.5205C12.9562 10.7071 14.0388 9.30494 14.8207 7.94501C14.0361 6.59718 12.95 5.1966 11.8115 4.38163ZM7.68276 10.9243C7.11806 10.9243 6.56604 10.7496 6.09651 10.4222C5.62698 10.0948 5.26103 9.62954 5.04493 9.08514C4.82882 8.54074 4.77228 7.9417 4.88245 7.36378C4.99262 6.78585 5.26455 6.25498 5.66385 5.83832C6.06315 5.42166 6.5719 5.1379 7.12574 5.02295C7.67959 4.90799 8.25367 4.96699 8.77539 5.19249C9.2971 5.41798 9.74302 5.79985 10.0567 6.28979C10.3705 6.77974 10.5379 7.35576 10.5379 7.94501C10.5371 8.73489 10.236 9.49217 9.70072 10.0507C9.16545 10.6092 8.43973 10.9234 7.68276 10.9243Z" fill="#CACACA"/>
</g>
<defs>
<clipPath id="clip0_124_106">
<rect width="15.2276" height="15.8897" fill="white" transform="translate(0.0689697)"/>
</clipPath>
</defs>
</svg>
