<svg width="16" height="16" viewBox="0 0 16 16" fill="none" xmlns="http://www.w3.org/2000/svg">
<path d="M8.38658 13.9036C8.19555 13.9033 8.00901 13.8431 7.85123 13.7307C5.51386 12.075 4.50176 10.9398 3.94352 10.23C2.75386 8.71709 2.18431 7.16381 2.20037 5.48174C2.21911 3.55419 3.70112 1.98633 5.50405 1.98633C6.81504 1.98633 7.72305 2.75691 8.25185 3.39871C8.2686 3.41883 8.2893 3.43497 8.31254 3.44603C8.33579 3.45709 8.36103 3.46281 8.38658 3.46281C8.41213 3.46281 8.43737 3.45709 8.46062 3.44603C8.48386 3.43497 8.50456 3.41883 8.52131 3.39871C9.05011 2.75629 9.95811 1.98633 11.2691 1.98633C13.072 1.98633 14.554 3.55419 14.5728 5.48205C14.5888 7.16443 14.0187 8.71771 12.8296 10.2303C12.2714 10.9401 11.2593 12.0753 8.92192 13.731C8.76411 13.8433 8.57758 13.9034 8.38658 13.9036Z" fill="#CACACA"/>
</svg>
