<svg width="16" height="16" viewBox="0 0 16 16" fill="none" xmlns="http://www.w3.org/2000/svg">
<g clip-path="url(#clip0_124_112)">
<path d="M3.33103 3.47607L3.92586 13.4071C3.95411 13.9809 4.35414 14.4002 4.87758 14.4002H10.35C10.8755 14.4002 11.2681 13.9809 11.3017 13.4071L11.8965 3.47607" stroke="#CACACA" stroke-width="1.5" stroke-linecap="round" stroke-linejoin="round"/>
<path d="M2.37931 3.47607H12.8483H2.37931Z" fill="#CACACA"/>
<path d="M2.37931 3.47607H12.8483" stroke="#CACACA" stroke-width="1.5" stroke-miterlimit="10" stroke-linecap="round"/>
<path d="M9.75517 5.46216L9.51724 12.4139M5.71034 3.47595V2.23458C5.71007 2.13668 5.72834 2.0397 5.76412 1.9492C5.79989 1.85871 5.85246 1.77649 5.9188 1.70726C5.98513 1.63804 6.06393 1.58319 6.15065 1.54586C6.23738 1.50853 6.33032 1.48946 6.42414 1.48975H8.80345C8.89726 1.48946 8.9902 1.50853 9.07693 1.54586C9.16365 1.58319 9.24245 1.63804 9.30879 1.70726C9.37512 1.77649 9.42769 1.85871 9.46347 1.9492C9.49924 2.0397 9.51751 2.13668 9.51724 2.23458V3.47595H5.71034ZM7.61379 5.46216V12.4139V5.46216ZM5.47241 5.46216L5.71034 12.4139L5.47241 5.46216Z" stroke="#CACACA" stroke-width="1.5" stroke-linecap="round" stroke-linejoin="round"/>
</g>
<defs>
<clipPath id="clip0_124_112">
<rect width="15.2276" height="15.8897" fill="white"/>
</clipPath>
</defs>
</svg>
