<svg width="32" height="32" viewBox="0 0 32 32" fill="none" xmlns="http://www.w3.org/2000/svg">
<path d="M29.105 1.26746H2.89502C2.46404 1.26746 2.05072 1.43866 1.74597 1.74341C1.44122 2.04815 1.27002 2.46148 1.27002 2.89246V29.105C1.27002 29.5359 1.44122 29.9493 1.74597 30.254C2.05072 30.5588 2.46404 30.73 2.89502 30.73H17V19.3225H13.165V14.875H17V11.595C17 7.78996 19.325 5.71746 22.72 5.71746C23.8657 5.71337 25.0107 5.77179 26.15 5.89246V9.86996H23.8025C21.955 9.86996 21.5975 10.7475 21.5975 12.035V14.875H26L25.4275 19.3225H21.5975V30.7325H29.0975C29.5283 30.7318 29.9412 30.5604 30.2458 30.2558C30.5504 29.9512 30.7219 29.5382 30.7225 29.1075V2.89496C30.7232 2.46484 30.5533 2.05201 30.2501 1.74694C29.9469 1.44186 29.5351 1.26944 29.105 1.26746Z" fill="#FF5722"/>
</svg>
