<svg width="32" height="32" viewBox="0 0 32 32" fill="none" xmlns="http://www.w3.org/2000/svg">
<path d="M29.7143 2H2.27857C1.02143 2 0 2.90625 0 4.01875V27.9813C0 29.0938 1.02143 30 2.27857 30H29.7143C30.9714 30 32 29.0938 32 27.9813V4.01875C32 2.90625 30.9714 2 29.7143 2ZM9.67143 26H4.92857V12.6375H9.67857V26H9.67143ZM7.3 10.8125C5.77857 10.8125 4.55 9.73125 4.55 8.40625C4.55 7.08125 5.77857 6 7.3 6C8.81429 6 10.05 7.08125 10.05 8.40625C10.05 9.7375 8.82143 10.8125 7.3 10.8125ZM27.45 26H22.7071V19.5C22.7071 17.95 22.6714 15.9563 20.2429 15.9563C17.7714 15.9563 17.3929 17.6438 17.3929 19.3875V26H12.65V12.6375H17.2V14.4625H17.2643C17.9 13.4125 19.45 12.3062 21.7571 12.3062C26.5571 12.3062 27.45 15.075 27.45 18.675V26Z" fill="#FF5722"/>
</svg>
