<svg width="0" height="0" class="hidden">
  <symbol fill="none" xmlns="http://www.w3.org/2000/svg" viewBox="0 0 32 32" id="linkedin">
    <path d="M29.7143 2H2.27857C1.02143 2 0 2.90625 0 4.01875V27.9813C0 29.0938 1.02143 30 2.27857 30H29.7143C30.9714 30 32 29.0938 32 27.9813V4.01875C32 2.90625 30.9714 2 29.7143 2ZM9.67143 26H4.92857V12.6375H9.67857V26H9.67143ZM7.3 10.8125C5.77857 10.8125 4.55 9.73125 4.55 8.40625C4.55 7.08125 5.77857 6 7.3 6C8.81429 6 10.05 7.08125 10.05 8.40625C10.05 9.7375 8.82143 10.8125 7.3 10.8125ZM27.45 26H22.7071V19.5C22.7071 17.95 22.6714 15.9563 20.2429 15.9563C17.7714 15.9563 17.3929 17.6438 17.3929 19.3875V26H12.65V12.6375H17.2V14.4625H17.2643C17.9 13.4125 19.45 12.3062 21.7571 12.3062C26.5571 12.3062 27.45 15.075 27.45 18.675V26Z" fill="#FF5722"></path>
  </symbol>
  <symbol fill="none" xmlns="http://www.w3.org/2000/svg" viewBox="0 0 32 32" id="twitter">
    <path d="M29.6173 7.54136C28.5994 7.99162 27.5199 8.28732 26.4147 8.41869C27.5787 7.72154 28.4497 6.62501 28.8653 5.33336C27.772 5.98402 26.5733 6.44002 25.3253 6.68669C24.4861 5.7888 23.3738 5.19331 22.1613 4.9928C20.9487 4.7923 19.7039 4.99801 18.6203 5.57796C17.5368 6.15791 16.6752 7.0796 16.1695 8.19975C15.6638 9.31989 15.5423 10.5757 15.824 11.772C13.6066 11.6611 11.4373 11.085 9.45697 10.0812C7.47667 9.07736 5.72964 7.66825 4.32932 5.94536C3.8337 6.79662 3.57326 7.76433 3.57465 8.74936C3.57465 10.6827 4.55998 12.3907 6.05465 13.3907C5.16934 13.3628 4.30351 13.1237 3.52932 12.6934V12.7614C3.52928 14.0492 3.9747 15.2974 4.79003 16.2943C5.60536 17.2911 6.7404 17.9753 8.00265 18.2307C7.18084 18.4536 6.31904 18.4865 5.48265 18.3267C5.83855 19.4352 6.53227 20.4047 7.46665 21.0992C8.40103 21.7938 9.52926 22.1787 10.6933 22.2C9.53646 23.1086 8.21183 23.7803 6.79519 24.1765C5.37856 24.5728 3.8977 24.6859 2.43732 24.5094C4.98628 26.1485 7.95346 27.0188 10.984 27.016C21.2427 27.016 26.8507 18.5187 26.8507 11.1494C26.8507 10.9094 26.8453 10.6667 26.8347 10.428C27.9259 9.63917 28.8677 8.66211 29.616 7.54269" fill="#FF5722"></path>
  </symbol>
  <symbol fill="none" xmlns="http://www.w3.org/2000/svg" viewBox="0 0 32 32" id="facebook">
    <path d="M29.105 1.26746H2.89502C2.46404 1.26746 2.05072 1.43866 1.74597 1.74341C1.44122 2.04815 1.27002 2.46148 1.27002 2.89246V29.105C1.27002 29.5359 1.44122 29.9493 1.74597 30.254C2.05072 30.5588 2.46404 30.73 2.89502 30.73H17V19.3225H13.165V14.875H17V11.595C17 7.78996 19.325 5.71746 22.72 5.71746C23.8657 5.71337 25.0107 5.77179 26.15 5.89246V9.86996H23.8025C21.955 9.86996 21.5975 10.7475 21.5975 12.035V14.875H26L25.4275 19.3225H21.5975V30.7325H29.0975C29.5283 30.7318 29.9412 30.5604 30.2458 30.2558C30.5504 29.9512 30.7219 29.5382 30.7225 29.1075V2.89496C30.7232 2.46484 30.5533 2.05201 30.2501 1.74694C29.9469 1.44186 29.5351 1.26944 29.105 1.26746Z" fill="#FF5722"></path>
  </symbol>
</svg>