<svg width="32" height="32" viewBox="0 0 32 32" fill="none" xmlns="http://www.w3.org/2000/svg">
<path d="M29.6173 7.54136C28.5994 7.99162 27.5199 8.28732 26.4147 8.41869C27.5787 7.72154 28.4497 6.62501 28.8653 5.33336C27.772 5.98402 26.5733 6.44002 25.3253 6.68669C24.4861 5.7888 23.3738 5.19331 22.1613 4.9928C20.9487 4.7923 19.7039 4.99801 18.6203 5.57796C17.5368 6.15791 16.6752 7.0796 16.1695 8.19975C15.6638 9.31989 15.5423 10.5757 15.824 11.772C13.6066 11.6611 11.4373 11.085 9.45697 10.0812C7.47667 9.07736 5.72964 7.66825 4.32932 5.94536C3.8337 6.79662 3.57326 7.76433 3.57465 8.74936C3.57465 10.6827 4.55998 12.3907 6.05465 13.3907C5.16934 13.3628 4.30351 13.1237 3.52932 12.6934V12.7614C3.52928 14.0492 3.9747 15.2974 4.79003 16.2943C5.60536 17.2911 6.7404 17.9753 8.00265 18.2307C7.18084 18.4536 6.31904 18.4865 5.48265 18.3267C5.83855 19.4352 6.53227 20.4047 7.46665 21.0992C8.40103 21.7938 9.52926 22.1787 10.6933 22.2C9.53646 23.1086 8.21183 23.7803 6.79519 24.1765C5.37856 24.5728 3.8977 24.6859 2.43732 24.5094C4.98628 26.1485 7.95346 27.0188 10.984 27.016C21.2427 27.016 26.8507 18.5187 26.8507 11.1494C26.8507 10.9094 26.8453 10.6667 26.8347 10.428C27.9259 9.63917 28.8677 8.66211 29.616 7.54269" fill="#FF5722"/>
</svg>
