<svg width="32" height="32" viewBox="0 0 32 32" fill="none" xmlns="http://www.w3.org/2000/svg">
<path d="M16 9.15332C14.6458 9.15332 13.3221 9.55487 12.1962 10.3072C11.0703 11.0595 10.1927 12.1288 9.67449 13.3799C9.15629 14.6309 9.0207 16.0076 9.28488 17.3357C9.54906 18.6638 10.2011 19.8838 11.1587 20.8413C12.1162 21.7988 13.3361 22.4509 14.6643 22.7151C15.9924 22.9793 17.369 22.8437 18.6201 22.3255C19.8712 21.8073 20.9405 20.9297 21.6928 19.8038C22.4451 18.6779 22.8467 17.3541 22.8467 16C22.8467 14.1841 22.1253 12.4427 20.8413 11.1587C19.5573 9.87466 17.8158 9.15332 16 9.15332ZM16 20.4453C15.1208 20.4453 14.2613 20.1846 13.5303 19.6961C12.7993 19.2077 12.2295 18.5134 11.893 17.7011C11.5566 16.8889 11.4685 15.9951 11.6401 15.1327C11.8116 14.2704 12.235 13.4784 12.8567 12.8567C13.4784 12.235 14.2704 11.8116 15.1327 11.6401C15.9951 11.4685 16.8889 11.5566 17.7011 11.893C18.5134 12.2295 19.2077 12.7993 19.6962 13.5303C20.1846 14.2613 20.4453 15.1208 20.4453 16C20.4455 16.5838 20.3306 17.1619 20.1073 17.7014C19.884 18.2408 19.5565 18.7309 19.1437 19.1437C18.7309 19.5565 18.2408 19.884 17.7014 20.1073C17.1619 20.3306 16.5838 20.4455 16 20.4453Z" fill="#F0EEEE"/>
<path d="M29.2533 10.5027C29.2312 9.39678 29.0215 8.30258 28.6333 7.26675C28.2982 6.37706 27.7736 5.57088 27.096 4.90408C26.4306 4.22595 25.6252 3.70128 24.736 3.36675C23.6997 2.97857 22.605 2.76937 21.4986 2.74808C20.0773 2.68275 19.6226 2.66675 16.0013 2.66675C12.38 2.66675 11.9253 2.68141 10.504 2.74675C9.39755 2.76872 8.30288 2.97836 7.26664 3.36675C6.37765 3.7017 5.57231 4.22631 4.90664 4.90408C4.22695 5.56974 3.7013 6.37619 3.36664 7.26675C2.97885 8.30265 2.76966 9.39685 2.74797 10.5027C2.6813 11.9241 2.66797 12.3787 2.66797 16.0001C2.66797 19.6214 2.6813 20.0761 2.74797 21.4974C2.76969 22.6033 2.97888 23.6975 3.36664 24.7334C3.70098 25.6238 4.22616 26.4302 4.9053 27.0961C5.57169 27.7736 6.37741 28.2982 7.26664 28.6334C8.303 29.0212 9.39764 29.2304 10.504 29.2521C11.9253 29.3174 12.38 29.3334 16 29.3334C19.62 29.3334 20.076 29.3187 21.4973 29.2534C22.6033 29.2313 23.6975 29.0217 24.7333 28.6334C25.6192 28.2909 26.4237 27.767 27.0953 27.0954C27.7669 26.4238 28.2908 25.6193 28.6333 24.7334C29.022 23.6977 29.2316 22.6034 29.2533 21.4974C29.3173 20.0747 29.3333 19.6214 29.3333 16.0001C29.3333 12.3787 29.3173 11.9241 29.2533 10.5027ZM26.8533 21.3881C26.8434 22.2335 26.6888 23.0709 26.396 23.8641C26.1742 24.4392 25.8344 24.9615 25.3986 25.3974C24.9627 25.8332 24.4404 26.173 23.8653 26.3947C23.0724 26.6887 22.2349 26.8438 21.3893 26.8534C19.9826 26.9174 19.5613 26.9307 16 26.9307C12.4386 26.9307 12.0186 26.9174 10.6133 26.8534C9.76776 26.8437 8.9302 26.6886 8.1373 26.3947C7.55829 26.1807 7.03441 25.8399 6.60397 25.3974C6.16066 24.9676 5.81978 24.4436 5.60664 23.8641C5.31267 23.0712 5.15751 22.2336 5.14797 21.3881C5.08397 19.9827 5.07064 19.5614 5.07064 16.0014C5.07064 12.4414 5.08397 12.0187 5.14797 10.6121C5.15862 9.76664 5.31374 8.92924 5.60664 8.13608C5.82068 7.55704 6.16143 7.03316 6.60397 6.60275C7.03366 6.15933 7.55775 5.81844 8.1373 5.60541C8.93018 5.3115 9.76776 5.15634 10.6133 5.14675C12.0186 5.08008 12.4413 5.06675 16 5.06675C19.5586 5.06675 19.9826 5.08141 21.3893 5.14541C22.2347 5.15609 23.0721 5.31121 23.8653 5.60408C24.4405 5.82578 24.9628 6.16551 25.3987 6.60138C25.8345 7.03725 26.1743 7.55959 26.396 8.13475C26.6899 8.92763 26.845 9.7652 26.8546 10.6107C26.9186 12.0174 26.932 12.4374 26.932 15.9987C26.932 19.5601 26.9186 19.9801 26.8546 21.3867" fill="#F0EEEE"/>
</svg>
