<svg width="32" height="32" viewBox="0 0 32 32" fill="none" xmlns="http://www.w3.org/2000/svg">
<path fill-rule="evenodd" clip-rule="evenodd" d="M12.572 11.9587H17.524V14.4254C18.2373 13.0067 20.0666 11.7321 22.8146 11.7321C28.0826 11.7321 29.3333 14.5561 29.3333 19.7374V29.3334H24V20.9174C24 17.9667 23.2866 16.3027 21.4706 16.3027C18.952 16.3027 17.9053 18.0961 17.9053 20.9161V29.3334H12.572V11.9587ZM3.42663 29.1067H8.75996V11.7321H3.42663V29.1067ZM9.52396 6.06675C9.52416 6.51378 9.4355 6.9564 9.26314 7.36886C9.09078 7.78133 8.83816 8.15543 8.51996 8.46942C7.87516 9.11025 7.00237 9.46895 6.09329 9.46675C5.18581 9.46614 4.31504 9.10835 3.66929 8.47075C3.35224 8.1557 3.10047 7.78118 2.92842 7.36866C2.75636 6.95613 2.6674 6.51371 2.66663 6.06675C2.66663 5.16408 3.02663 4.30008 3.67063 3.66275C4.31581 3.02429 5.18695 2.66635 6.09463 2.66675C7.00396 2.66675 7.87596 3.02542 8.51996 3.66275C9.16263 4.30008 9.52396 5.16408 9.52396 6.06675Z" fill="#F0EEEE"/>
</svg>
