<svg width="0" height="0" class="hidden">
  <symbol fill="none" xmlns="http://www.w3.org/2000/svg" viewBox="0 0 32 32" id="facebook">
    <path d="M18.6667 18.0001H22L23.3334 12.6667H18.6667V10.0001C18.6667 8.62675 18.6667 7.33341 21.3334 7.33341H23.3334V2.85341C22.8987 2.79608 21.2574 2.66675 19.524 2.66675C15.904 2.66675 13.3334 4.87608 13.3334 8.93341V12.6667H9.33337V18.0001H13.3334V29.3334H18.6667V18.0001Z" fill="#F0EEEE"></path>
  </symbol>
  <symbol fill="none" xmlns="http://www.w3.org/2000/svg" viewBox="0 0 32 32" id="instagram">
    <path d="M16 9.15332C14.6458 9.15332 13.3221 9.55487 12.1962 10.3072C11.0703 11.0595 10.1927 12.1288 9.67449 13.3799C9.15629 14.6309 9.0207 16.0076 9.28488 17.3357C9.54906 18.6638 10.2011 19.8838 11.1587 20.8413C12.1162 21.7988 13.3361 22.4509 14.6643 22.7151C15.9924 22.9793 17.369 22.8437 18.6201 22.3255C19.8712 21.8073 20.9405 20.9297 21.6928 19.8038C22.4451 18.6779 22.8467 17.3541 22.8467 16C22.8467 14.1841 22.1253 12.4427 20.8413 11.1587C19.5573 9.87466 17.8158 9.15332 16 9.15332ZM16 20.4453C15.1208 20.4453 14.2613 20.1846 13.5303 19.6961C12.7993 19.2077 12.2295 18.5134 11.893 17.7011C11.5566 16.8889 11.4685 15.9951 11.6401 15.1327C11.8116 14.2704 12.235 13.4784 12.8567 12.8567C13.4784 12.235 14.2704 11.8116 15.1327 11.6401C15.9951 11.4685 16.8889 11.5566 17.7011 11.893C18.5134 12.2295 19.2077 12.7993 19.6962 13.5303C20.1846 14.2613 20.4453 15.1208 20.4453 16C20.4455 16.5838 20.3306 17.1619 20.1073 17.7014C19.884 18.2408 19.5565 18.7309 19.1437 19.1437C18.7309 19.5565 18.2408 19.884 17.7014 20.1073C17.1619 20.3306 16.5838 20.4455 16 20.4453Z" fill="#F0EEEE"></path>
    <path d="M29.2533 10.5027C29.2312 9.39678 29.0215 8.30258 28.6333 7.26675C28.2982 6.37706 27.7736 5.57088 27.096 4.90408C26.4306 4.22595 25.6252 3.70128 24.736 3.36675C23.6997 2.97857 22.605 2.76937 21.4986 2.74808C20.0773 2.68275 19.6226 2.66675 16.0013 2.66675C12.38 2.66675 11.9253 2.68141 10.504 2.74675C9.39755 2.76872 8.30288 2.97836 7.26664 3.36675C6.37765 3.7017 5.57231 4.22631 4.90664 4.90408C4.22695 5.56974 3.7013 6.37619 3.36664 7.26675C2.97885 8.30265 2.76966 9.39685 2.74797 10.5027C2.6813 11.9241 2.66797 12.3787 2.66797 16.0001C2.66797 19.6214 2.6813 20.0761 2.74797 21.4974C2.76969 22.6033 2.97888 23.6975 3.36664 24.7334C3.70098 25.6238 4.22616 26.4302 4.9053 27.0961C5.57169 27.7736 6.37741 28.2982 7.26664 28.6334C8.303 29.0212 9.39764 29.2304 10.504 29.2521C11.9253 29.3174 12.38 29.3334 16 29.3334C19.62 29.3334 20.076 29.3187 21.4973 29.2534C22.6033 29.2313 23.6975 29.0217 24.7333 28.6334C25.6192 28.2909 26.4237 27.767 27.0953 27.0954C27.7669 26.4238 28.2908 25.6193 28.6333 24.7334C29.022 23.6977 29.2316 22.6034 29.2533 21.4974C29.3173 20.0747 29.3333 19.6214 29.3333 16.0001C29.3333 12.3787 29.3173 11.9241 29.2533 10.5027ZM26.8533 21.3881C26.8434 22.2335 26.6888 23.0709 26.396 23.8641C26.1742 24.4392 25.8344 24.9615 25.3986 25.3974C24.9627 25.8332 24.4404 26.173 23.8653 26.3947C23.0724 26.6887 22.2349 26.8438 21.3893 26.8534C19.9826 26.9174 19.5613 26.9307 16 26.9307C12.4386 26.9307 12.0186 26.9174 10.6133 26.8534C9.76776 26.8437 8.9302 26.6886 8.1373 26.3947C7.55829 26.1807 7.03441 25.8399 6.60397 25.3974C6.16066 24.9676 5.81978 24.4436 5.60664 23.8641C5.31267 23.0712 5.15751 22.2336 5.14797 21.3881C5.08397 19.9827 5.07064 19.5614 5.07064 16.0014C5.07064 12.4414 5.08397 12.0187 5.14797 10.6121C5.15862 9.76664 5.31374 8.92924 5.60664 8.13608C5.82068 7.55704 6.16143 7.03316 6.60397 6.60275C7.03366 6.15933 7.55775 5.81844 8.1373 5.60541C8.93018 5.3115 9.76776 5.15634 10.6133 5.14675C12.0186 5.08008 12.4413 5.06675 16 5.06675C19.5586 5.06675 19.9826 5.08141 21.3893 5.14541C22.2347 5.15609 23.0721 5.31121 23.8653 5.60408C24.4405 5.82578 24.9628 6.16551 25.3987 6.60138C25.8345 7.03725 26.1743 7.55959 26.396 8.13475C26.6899 8.92763 26.845 9.7652 26.8546 10.6107C26.9186 12.0174 26.932 12.4374 26.932 15.9987C26.932 19.5601 26.9186 19.9801 26.8546 21.3867" fill="#F0EEEE"></path>
  </symbol>
  <symbol fill="none" xmlns="http://www.w3.org/2000/svg" viewBox="0 0 32 32" id="linkedin">
    <path fill-rule="evenodd" clip-rule="evenodd" d="M12.572 11.9587H17.524V14.4254C18.2373 13.0067 20.0666 11.7321 22.8146 11.7321C28.0826 11.7321 29.3333 14.5561 29.3333 19.7374V29.3334H24V20.9174C24 17.9667 23.2866 16.3027 21.4706 16.3027C18.952 16.3027 17.9053 18.0961 17.9053 20.9161V29.3334H12.572V11.9587ZM3.42663 29.1067H8.75996V11.7321H3.42663V29.1067ZM9.52396 6.06675C9.52416 6.51378 9.4355 6.9564 9.26314 7.36886C9.09078 7.78133 8.83816 8.15543 8.51996 8.46942C7.87516 9.11025 7.00237 9.46895 6.09329 9.46675C5.18581 9.46614 4.31504 9.10835 3.66929 8.47075C3.35224 8.1557 3.10047 7.78118 2.92842 7.36866C2.75636 6.95613 2.6674 6.51371 2.66663 6.06675C2.66663 5.16408 3.02663 4.30008 3.67063 3.66275C4.31581 3.02429 5.18695 2.66635 6.09463 2.66675C7.00396 2.66675 7.87596 3.02542 8.51996 3.66275C9.16263 4.30008 9.52396 5.16408 9.52396 6.06675Z" fill="#F0EEEE"></path>
  </symbol>
  <symbol fill="none" xmlns="http://www.w3.org/2000/svg" viewBox="0 0 32 32" id="telegram">
    <path d="M26.07 3.99604C25.749 4.0194 25.4339 4.09471 25.137 4.21904H25.133C24.848 4.33204 23.493 4.90204 21.433 5.76604L14.051 8.87504C8.754 11.105 3.547 13.301 3.547 13.301L3.609 13.277C3.609 13.277 3.25 13.395 2.875 13.652C2.64332 13.7995 2.44397 13.9924 2.289 14.219C2.105 14.489 1.957 14.902 2.012 15.329C2.102 16.051 2.57 16.484 2.906 16.723C3.246 16.965 3.57 17.078 3.57 17.078H3.578L8.461 18.723C8.68 19.426 9.949 23.598 10.254 24.559C10.434 25.133 10.609 25.492 10.828 25.766C10.934 25.906 11.058 26.023 11.207 26.117C11.2845 26.1621 11.367 26.1977 11.453 26.223L11.403 26.211C11.418 26.215 11.43 26.227 11.441 26.231C11.481 26.242 11.508 26.246 11.559 26.254C12.332 26.488 12.953 26.008 12.953 26.008L12.988 25.98L15.871 23.355L20.703 27.062L20.813 27.109C21.82 27.551 22.84 27.305 23.379 26.871C23.922 26.434 24.133 25.875 24.133 25.875L24.168 25.785L27.902 6.65604C28.008 6.18404 28.035 5.74204 27.918 5.31304C27.7973 4.87887 27.5188 4.50545 27.137 4.26604C26.8164 4.07116 26.4447 3.97709 26.07 3.99604ZM25.969 6.04604C25.965 6.10904 25.977 6.10204 25.949 6.22304V6.23404L22.25 25.164C22.234 25.191 22.207 25.25 22.133 25.309C22.055 25.371 21.993 25.41 21.668 25.281L15.758 20.75L12.188 24.004L12.938 19.214L22.594 10.214C22.992 9.84404 22.859 9.76604 22.859 9.76604C22.887 9.31204 22.258 9.63304 22.258 9.63304L10.082 17.176L10.078 17.156L4.242 15.191V15.187L4.227 15.184C4.23723 15.1806 4.24725 15.1766 4.257 15.172L4.289 15.156L4.32 15.145C4.32 15.145 9.531 12.949 14.828 10.719C17.48 9.60204 20.152 8.47704 22.207 7.60904C23.4257 7.09605 24.6457 6.58604 25.867 6.07904C25.949 6.04704 25.91 6.04604 25.969 6.04604Z" fill="#F0EEEE"></path>
  </symbol>
  <symbol fill="none" xmlns="http://www.w3.org/2000/svg" viewBox="0 0 32 32" id="twitter">
    <path d="M29.6174 7.54124C28.5995 7.99149 27.52 8.2872 26.4147 8.41857C27.5788 7.72142 28.4498 6.62489 28.8654 5.33324C27.772 5.9839 26.5734 6.4399 25.3254 6.68657C24.4862 5.78867 23.3739 5.19319 22.1613 4.99268C20.9488 4.79218 19.704 4.99789 18.6204 5.57784C17.5368 6.15779 16.6752 7.07948 16.1695 8.19963C15.6638 9.31977 15.5424 10.5756 15.824 11.7719C13.6066 11.661 11.4373 11.0849 9.45703 10.0811C7.47673 9.07723 5.7297 7.66813 4.32938 5.94524C3.83376 6.7965 3.57332 7.7642 3.57471 8.74924C3.57471 10.6826 4.56004 12.3906 6.05471 13.3906C5.1694 13.3626 4.30357 13.1236 3.52938 12.6932V12.7612C3.52934 14.0491 3.97476 15.2973 4.79009 16.2941C5.60542 17.291 6.74046 17.9752 8.00271 18.2306C7.1809 18.4535 6.3191 18.4863 5.48271 18.3266C5.83861 19.4351 6.53233 20.4045 7.46671 21.0991C8.40109 21.7937 9.52932 22.1786 10.6934 22.1999C9.53652 23.1085 8.21189 23.7801 6.79526 24.1764C5.37862 24.5727 3.89776 24.6858 2.43738 24.5092C4.98634 26.1484 7.95352 27.0187 10.984 27.0159C21.2427 27.0159 26.8507 18.5186 26.8507 11.1492C26.8507 10.9092 26.8454 10.6666 26.8347 10.4279C27.9259 9.63905 28.8678 8.66198 29.616 7.54257" fill="#F0EEEE"></path>
  </symbol>
</svg>