<svg width="32" height="32" viewBox="0 0 32 32" fill="none" xmlns="http://www.w3.org/2000/svg">
<path d="M29.6174 7.54124C28.5995 7.99149 27.52 8.2872 26.4147 8.41857C27.5788 7.72142 28.4498 6.62489 28.8654 5.33324C27.772 5.9839 26.5734 6.4399 25.3254 6.68657C24.4862 5.78867 23.3739 5.19319 22.1613 4.99268C20.9488 4.79218 19.704 4.99789 18.6204 5.57784C17.5368 6.15779 16.6752 7.07948 16.1695 8.19963C15.6638 9.31977 15.5424 10.5756 15.824 11.7719C13.6066 11.661 11.4373 11.0849 9.45703 10.0811C7.47673 9.07723 5.7297 7.66813 4.32938 5.94524C3.83376 6.7965 3.57332 7.7642 3.57471 8.74924C3.57471 10.6826 4.56004 12.3906 6.05471 13.3906C5.1694 13.3626 4.30357 13.1236 3.52938 12.6932V12.7612C3.52934 14.0491 3.97476 15.2973 4.79009 16.2941C5.60542 17.291 6.74046 17.9752 8.00271 18.2306C7.1809 18.4535 6.3191 18.4863 5.48271 18.3266C5.83861 19.4351 6.53233 20.4045 7.46671 21.0991C8.40109 21.7937 9.52932 22.1786 10.6934 22.1999C9.53652 23.1085 8.21189 23.7801 6.79526 24.1764C5.37862 24.5727 3.89776 24.6858 2.43738 24.5092C4.98634 26.1484 7.95352 27.0187 10.984 27.0159C21.2427 27.0159 26.8507 18.5186 26.8507 11.1492C26.8507 10.9092 26.8454 10.6666 26.8347 10.4279C27.9259 9.63905 28.8678 8.66198 29.616 7.54257" fill="#F0EEEE"/>
</svg>
